<?xml version="1.0" standalone="no"?><!DOCTYPE svg PUBLIC "-//W3C//DTD SVG 1.1//EN" "http://www.w3.org/Graphics/SVG/1.1/DTD/svg11.dtd"><svg t="1645425483475" class="icon" viewBox="0 0 1024 1024" version="1.1" xmlns="http://www.w3.org/2000/svg" p-id="11340" xmlns:xlink="http://www.w3.org/1999/xlink" width="200" height="200"><defs><style type="text/css"></style></defs><path d="M922.9 165.4L757.4 0 648.7 108.8 814 274.2zM210.1 687.7l-27.3-27.3L336.3 507l-42.9-42.9-197 197h-0.1L16.7 906l244.9-79.5h0.1v-0.1l197-196.9-95.2-95.2zM592.9 250.3l27.3 27.2-71.1 71 95.3 95.2 113.4-113.5L592.5 165 479 278.5l42.9 42.8z" p-id="11341" fill="#707070"></path><path d="M794.3 544.8c11.5 0 22.4 2 33.6 3.4-32.2-21.9-69.5-35.4-107.7-35.4-19.6 0-40.6 6.4-61.3 17L395.7 266.7c10.6-20.7 16.9-41.5 16.9-60.6 0-104.7-99.5-206-204.1-206h-2c-0.4 0-12.3 12.1-18.8 18.5 84.4 84.4 77.5 70.7 77.5 122.5 0 42-67.3 108.3-108.3 108.3-9 0-16 0.2-21.8 0.2-28.6 0-29-6-100.6-77.7-6.8 6.7-18.7 18.5-18.7 18.8 1.3 105.3 100.8 206 206 206 19.1 0 39.5-6 59.6-16.2l264.1 264.1c-10.1 20.1-16 40.3-16 58.8 0 15.8 2.9 31.3 7.1 46.6 27.3-117.3 132.2-205.2 257.7-205.2z" p-id="11342" fill="#707070"></path><path d="M794.3 596.1c-118.1 0-213.9 95.8-213.9 213.9s95.8 213.9 213.9 213.9 213.9-95.8 213.9-213.9-95.8-213.9-213.9-213.9z m105.6 245.2h-74.2v74.2c0 17.2-14.1 31.3-31.3 31.3-17.2 0-31.3-14.1-31.3-31.3v-74.2h-74.2c-17.2 0-31.3-14.1-31.3-31.3 0-17.2 14.1-31.3 31.3-31.3H763v-74.2c0-17.2 14.1-31.3 31.3-31.3 17.2 0 31.3 14.1 31.3 31.3v74.2h74.2c17.2 0 31.3 14.1 31.3 31.3 0.1 17.2-14 31.3-31.2 31.3z" p-id="11343" fill="#707070"></path></svg>