<?xml version="1.0" standalone="no"?><!DOCTYPE svg PUBLIC "-//W3C//DTD SVG 1.1//EN" "http://www.w3.org/Graphics/SVG/1.1/DTD/svg11.dtd"><svg t="1645413410753" class="icon" viewBox="0 0 1024 1024" version="1.1" xmlns="http://www.w3.org/2000/svg" p-id="6762" xmlns:xlink="http://www.w3.org/1999/xlink" width="200" height="200"><defs><style type="text/css"></style></defs><path d="M512 0c282.763636 0 512 229.236364 512 512s-229.236364 512-512 512S0 794.763636 0 512 229.236364 0 512 0z m0 93.090909a418.909091 418.909091 0 1 0 0 837.818182 418.909091 418.909091 0 0 0 0-837.818182z" fill="#707070" p-id="6763"></path><path d="M501.76 308.363636a46.545455 46.545455 0 1 0-72.610909-58.181818l-186.181818 232.727273a46.545455 46.545455 0 0 0 0 58.181818l186.181818 232.727273a46.545455 46.545455 0 1 0 72.610909-58.181818L338.850909 512l162.909091-203.636364z" fill="#707070" p-id="6764"></path><path d="M734.487273 308.363636a46.545455 46.545455 0 1 0-72.610909-58.181818l-186.181819 232.727273a46.545455 46.545455 0 0 0 0 58.181818l186.181819 232.727273a46.545455 46.545455 0 1 0 72.610909-58.181818L571.578182 512l162.909091-203.636364z" fill="#707070" p-id="6765"></path></svg>