<svg xmlns="http://www.w3.org/2000/svg" width="600" height="300" viewBox="0 0 600 300">
  <defs>
    <style>
      .cls-1 {
        fill: #8c3565;
        fill-rule: evenodd;
      }
    </style>
  </defs>
  <path id="形状_317_1" data-name="形状 317 1" class="cls-1" d="M278.408,65.629v1.759c-2.411.536-4.328,1.585-5.08,4.1-2.876,4.187-1.573,16.606-.508,21.694,2.512,1.376,4.272.934,6.6-.586v1.173c-3.319,2.947-11.517,13.936-13.717,18.176,6.251,1.029,9.067,6.437,15.749,5.863a211.27,211.27,0,0,0-1.524,21.108c-2.317-.441-3.6-1.782-5.588-2.346-4.088-1.161-7.091,1.255-10.161,1.759,0.017-8.888-4.83-16.163-8.637-21.107-1.54-2-5.816-5.072-6.1-6.45,3.162-2.248,11.294.812,13.717-.586-4.218-1.818-4.841-8.281-6.6-9.381H242.337c0.093,6.816,1.347,27.25-1.016,31.075-1.384,4.753-5.876,4.377-7.621,8.208,6.48,0.529,9.064,6.243,13.209,9.381,1.6,1.211,4.025,1.058,5.589,2.346-2.837,3.54-4.08,11.671-5.081,17h-0.508c-2.208-4-6.861-5.434-12.193-4.1v-1.173c1.919-3.159-4.268-20.519-5.588-21.108s-2.509,2.318-3.048,2.932c-0.46-5.385-3.236-11.415-7.113-12.9-1.689-1.6-4.835-1.177-7.113-.586-0.683,1.6-1.184,1.959-1.524,4.1-1.125,2.4,2.295,6.862,3.048,9.381h-1.524c-2.923-3.188-6.445-4.052-8.128-8.795-0.808-2.275.058-6.776-1.016-8.8-3.9,4.134-17.018,8.691-24.387,8.8-0.467,9.75-6.617,25.737-10.668,32.248-1.454,2.336-4.089,4.164-5.589,6.449-2.511,3.826-5.922,8.932-10.161,10.554v-1.173c4.513-5.248,5-14.163,7.113-22.28,5.414-20.818,6.091-48.63,6.1-74.462,0-7.74,2.523-34.48-2.032-36.938h-4.064a5.816,5.816,0,0,1-3.049,1.759V52.143h0.509c1.551-3.09,13.474-19.475,15.749-20.521,0.658-.514,1.253-0.524,2.54-0.586,1.964,2.347,4.884,3.841,6.605,6.45q0.253,1.173.508,2.345h79.255C266.87,33.5,268.808,33.853,272.312,24h1.016c1.827,8.79,8.711,17.732,16.257,19.935v0.586h-51.82v0.586c5.261,4.49,2.255,16.607-3.049,18.176V63.87h20.322V63.283c5.176-2.065,6.1-7.757,9.145-12.313v0.586C268.792,57.346,269.7,64.343,278.408,65.629ZM84.335,60.938q-0.254,16.709-.508,33.42c6.529,0.084,25.426,1.6,29.975-.586,5.026-2.41,8.426-9.471,10.669-15.244a2.244,2.244,0,0,1,.508,1.173c3.187,3.862,4.45,10.231,8.129,13.485,2.119,1.875,6.775,3.209,8.128,5.863H117.358V148.3c0,9.528-.494,21.024,1.016,28.729a38.83,38.83,0,0,1,4.573,2.932h-1.016c-2.518,3.023-6.08,4.6-8.129,8.208-2.566,4.515-2.683,11.562-5.589,15.831-0.835-8.224-5.856-18.277-10.669-22.28-1.206-1-2.518-1.226-3.556-2.345,2.2-.258,3.384-0.851,4.064-2.932,3.02-3.9,2.032-14.575,2.032-21.694v-55.7H83.827c0.522,45.232-8.314,85.055-40.644,92.638v-1.172c2-1.663,3.083-4.159,4.572-6.45,2.877-4.426,6.632-8.529,9.145-13.485,5.725-11.292,7.513-28.675,7.621-45.733H64.013v1.173c-1.393,2.032-2.147,5.12-3.048,7.622-1.872-1.949-3.537-4.745-6.1-5.864-2.218-.969-5.877.363-7.113-1.758,3.418-4.945-1.081-20.023-2.032-24.626a7.324,7.324,0,0,0-2.032-1.173v0.587c-3.249,2.62-2.032,12.012-2.032,18.176v51.009l1.524,5.277a33.456,33.456,0,0,0,5.081,2.346,1.576,1.576,0,0,1-.508.586c-1.289,1.189-3.141,1.228-4.572,2.345-5.561,4.342-7.62,13.158-10.161,21.108H32.515c-0.437-9.117-7.293-21.7-14.733-22.867v-1.759a13.535,13.535,0,0,0,3.556-.586c5.534-10.239,3.086-39.877,3.048-56.287H23.37C20.139,124.706,6.409,130.307,0,131.3v-1.172c3.9-2.292,20.979-21.318,22.354-25.8H21.338c-1.717-1.329-3.88.062-5.589,0.586v-1.173C20.878,99.72,26.571,85.8,32.515,84.391a3.486,3.486,0,0,0,2.032,1.173c1.271-5.1,5.032-7.138,4.064-13.485H0.508v-4.1H22.354c0.056-4.629.625-11.159-1.016-14.072-1.312-2.33-4.412-2.718-5.589-5.277,6.944-1.725,13.708-9.028,15.241-17H31.5c1.06,8.78,8.51,15.2,15.749,17V49.8c-4.1.668-4.9,3.719-7.113,6.45l-0.508,11.14h0.508c1.893-1.967,5.025-2.366,7.113-4.1,2.667-2.22,4.127-7.09,7.113-8.795,0.075,3.065,1.207,8.221,3.048,9.381,2.143-3.892,13.335-19.422,17.273-19.935,4.167,4.6,6.621,5.258,9.145,12.313,9.578-4.741,29.993-15.239,35.055-24.039h0.508v0.586l12.193,15.831c1.966,2.265,5.067,3.743,6.1,7.036h-8.637c-3.637,2.543-10.662.024-15.241,1.173ZM183.4,44.521c1.409,8.2,1.525,27.612,0,35.765V96.7c-1.265,6.685-.1,14.874-1.524,22.28q-1.271,7.914-2.54,15.83h0.508c5.365-7.84,18.963-13.234,21.845-23.452-2.423-2.848-3.773-7.02-6.6-9.382-2.057-1.716-6.32-2.155-7.621-4.69,2.472-.389,5.345-2.2,6.1-4.691,2.16-3.164,1.284-15.089.508-19.348-2.9-1.664-4.245-1.545-7.621-.586V71.492c5-3.915,9.778-16.111,16.766-16.417,1.048,1.667,3.027,2.475,4.064,4.1l2.032,4.691H214.9V62.7c-0.64-1.1-.515-3.325-0.508-5.277,0.031-9.074,3.5-9.3,8.128-12.9H183.4Zm52.836,0c-2.915-.094-8.738-0.872-10.668.586,4.5,0.42,5.273,3.248,10.16,3.518A14.369,14.369,0,0,0,236.24,44.521ZM219.475,59.766a14.49,14.49,0,0,1-2.032,2.932V63.87H227.1V63.283C224.12,62.168,223.5,60.045,219.475,59.766ZM59.949,63.87a13.478,13.478,0,0,1-2.54,1.173,1.571,1.571,0,0,0,.508.586C59.6,69,62.6,72.581,66.046,73.837V68.56a12.262,12.262,0,0,1-1.016-2.345C63.329,65.057,62.618,64.132,59.949,63.87ZM209.822,68.56v9.967h46.232c0-2.192-.194-4.557-1.016-5.863-1.5-5.2-6.338-4.1-12.193-4.1H209.822ZM65.03,76.769c-2.09,1.855-5.012,2.326-7.113,4.1-1.79,1.515-2.714,4.368-4.064,6.45-2.422,3.732-5.979,6.388-8.129,10.554,10.127,0.785,13.377,10.781,19.814,15.831V87.323C65.538,84.227,66.146,78.811,65.03,76.769Zm144.792,6.45c0.01,2.269.078,7.184,1.016,8.795,0.477,1.826,1.275,2.659,2.032,4.1h43.184v-12.9H209.822ZM486.2,113.707c-0.191,1.887-1.685,11.5-2.54,12.9-1.262-1.525-2.584-2.166-5.081-2.345v0.586h1.017a5.815,5.815,0,0,0,3.048,1.759v1.172a3.9,3.9,0,0,0-3.556,2.346c-2.414,3.559-1.369,18.085-.509,22.866a9.6,9.6,0,0,0,3.557.587,2.384,2.384,0,0,1,1.524-.587v0.587c-2.909,2.2-6.73,7.205-8.637,10.553,1.649,0.486.776-.287,1.524,1.173-1.8.532-2.588,1.467-4.064,2.345v0.587h9.653v-0.587c3.376-1.335,5.17-5.787,6.6-9.381a2.23,2.23,0,0,1,.508,1.173c3.912,4.817,4.31,7.392,10.161,10.553v0.587c-6.1,1.052-8.592,9.96-10.669,10.554-2.759-3.528-3.28-8.785-8.636-9.382-1.6-1.211-6.132-.662-8.637-0.586a89.566,89.566,0,0,0,1.016,16.417c1.243,0.6,2.39.948,3.048,2.345-7.761,1.443-6.518,9.593-10.161,12.313v-0.586c-1.383-2.033-1.724-4.924-3.048-7.036-1.631-2.6-4.418-3.278-6.605-5.277h1.017c0.758-.961,1.709-2.054,2.54-2.932,0.261-4.461.5-9.971,0.508-15.244H445.555v0.586h-0.508c-0.893,16.386-12.968,19.835-25.4,23.453-2.609.759-9.385,3.224-12.193,1.173h1.016c5.094-4.45,13.268-5.1,18.29-9.968,3.509-3.4,4.424-9.644,6.1-15.244H406.435v-2.931h26.927V161.2h-0.508v0.586h-0.509c-0.7,1.53-1.694,4.415-3.048,5.277-1.056-7.916-6.942-6.515-9.145-11.14,6.129-1.87,4.279-15.907,4.065-24.626a2.222,2.222,0,0,1-.508-1.172,1.677,1.677,0,0,1-1.016-.587l-3.557,1.173v-0.586a2.23,2.23,0,0,0,.508-1.173c3.567-2.813,5.8-10.4,10.669-11.14a13.892,13.892,0,0,0,2.541,2.345,71.19,71.19,0,0,0-5.081-11.14h-0.508V109.6c-7.376,5.836-11.254,19.2-22.862,19.934v-0.586c7.588-6.986,15.6-28.912,18.29-41.628H423.2c0.721,6.8,5.123,7.726,8.636,11.14a26.719,26.719,0,0,1-2.032,6.45h9.145v-0.586c4.512-1.748,4.487-7.76,8.129-9.968,1.226,6.225,5.28,8.15,8.128,12.313h0.508v-0.586c3.426-4.55,4.023-14.122,6.1-19.935h0.508c0.589,8.725,9.914,7.469,9.145,12.9-0.292,2.062-2.178,4.751-3.048,6.449h9.144c0.775-1.42,6.143-9.989,7.113-10.553v0.586c1.436,1.775,1.784,4.43,3.048,6.449,1.894,3.025,5.1,4.108,7.621,6.45-3.97-.081-16.948-1.154-19.306.586C480.349,109.8,481.171,113.31,486.2,113.707ZM369.856,130.124l9.653-.587c2.195-3.6,4.75-5.457,6.6-9.967h0.509v0.586c3.709,5.465,3.628,7.857,9.652,11.14v0.587h-0.508c-4.512,4.857-6.34,3.858-9.144,11.726h-1.017c-0.7-5.994-4.107-7.327-7.112-10.554h-8.637c-0.08,16.4-1.808,37.275,1.016,51.6a7.4,7.4,0,0,1,3.048,1.173h-0.508c-5,5.559-8.385,8.5-10.161,18.176h-0.508c-0.589-5.67-3.35-13.045-6.6-15.831-1.483-1.27-2.637-.942-3.556-2.931,2.054-.275,2.406-0.41,3.048-2.346,1.751-2.882,1.016-9.955,1.016-14.657v-35.18H333.785v-2.931h22.862v-42.8h1.016c1.368,5.419,7.122,8.847,11.685,10.554,2.257,0.845,4.423.411,6.1,1.759h-0.509c-1.3,1.441-3.117,2.258-4.064,4.1C368.2,108.96,369.783,122.672,369.856,130.124ZM593.9,167.062h-4.572c-2.682,4.695-2.633,7.707-2.54,15.83a7.3,7.3,0,0,0,2.032,1.173c1.183,0.787,2.247.054,3.556-.586v1.172c-3.932,3.047-6.062,9.823-10.669,11.727-1.4-1.462-3.481-2.318-4.572-4.1q-0.509-1.76-1.016-3.518h-9.145v0.586c-4.132,1.556-4.006,6.09-7.112,8.208a12.443,12.443,0,0,0-9.145-9.967c-1.645,3.02-5.164,8.609-8.637,9.381-2.341-2.5-4.543-2.827-5.08-7.622-2.6-.093-7.476-0.684-9.145.586-3.358,1.253-5.192,4.687-6.6,8.209-1.923-2.3-2.813-5.728-5.08-7.622-1.648-1.377-4.035-1.441-5.081-3.518a3.9,3.9,0,0,0,3.557-2.346c1.829-2.645,1.174-11.085.508-14.658a5.563,5.563,0,0,1-1.524-1.172l-3.557,1.172v-0.586a12.414,12.414,0,0,0,3.557-5.277h-1.017c-1.147.956-5.455,0.941-6.6,0,8.165-1.131,15.772-8.075,21.338-12.9,3.2-2.774,5.247-7.31,8.636-9.967v-0.586H506.52V137.16l32.007,0.586c1.09-2.543,2.75-4.235,3.556-7.036a1.577,1.577,0,0,0,.508-0.586,10.11,10.11,0,0,1-5.08-4.691q-0.255-1.172-.508-2.345H526.842c-1.892,3.081-4.02,4.3-5.589,8.208a1.569,1.569,0,0,1-.508-0.586c-1.569-1.839-2.248-4.918-4.064-6.449-1.875-1.581-4.968-1.659-6.1-4.1,5.9-.9,4.842-8.8,4.573-16.417a2.222,2.222,0,0,1-.508-1.172h-1.016c-1.27-.827-2.446.105-4.065,0.586v-0.586h0.508c1.567-2.918,7.97-11.893,11.177-12.313l3.556,3.518,1.525,4.691h8.128V97.876c4.406-1.645,4.788-6.562,8.129-8.795,0.345,3.973,8.076,12.187,10.161,9.968,3.307-2.6,4.967-8.75,9.653-9.381,1.416,1.753,3.055,3.64,4.572,5.277V97.29h9.653c1.035-1.56,3.076-1.967,4.064-3.518,0.544-.853,2.231-5.835,2.541-4.691,1.74,2.072,2.477,5.39,4.572,7.036,1.884,1.481,4.426,1.21,5.588,3.518h-1.016c-1.251,1.165-2.285,1.086-3.048,2.932-1.526,2.6-.586,8.7-0.508,13.485,2.427,1.686,2.692,1.47,5.588.586v0.587c-4.065,3.235-6.035,11.256-12.193,11.726-3.413-4.483-3.242-7.255-10.668-7.036v1.173c1.315,1.523,2.022,4.034,3.556,5.277,1.63,1.32,2.628.737,3.556,2.931a9.282,9.282,0,0,0-6.6,6.45h10.16V137.16c3.564-1.338,5.61-6.247,7.113-9.968a2.238,2.238,0,0,1,.508,1.173c1.87,2.684,2.664,6.2,5.081,8.208,1.537,1.281,3.618,1.587,5.08,2.932h-0.508c-2.352,2.513-5.717,3.419-7.621,6.449-1.218,1.939-1.116,4.121-3.048,5.277-1.141-5.356-4.174-7.354-7.113-10.553H563.421v0.586a1.577,1.577,0,0,1,.508.586c9.952,5.591,21.3,10.832,36.071,11.14v1.173C596.556,156.728,594.468,161.176,593.9,167.062Zm-260.118-68.6h1.524c1.069,3.871,2.507,5.832,2.54,11.726-1.883,2.236-3.652,4.276-5.588,6.449-5.871,0-6.58-2.753-12.193-2.931-0.562,1.489-1.15,4.431-2.032,5.863v-0.586c-2.732-3.322-1.982-10.165-1.017-14.658a31.368,31.368,0,0,0,4.573-4.1c5.737-.034,7.129,2.193,12.7,2.346a9.339,9.339,0,0,0,.508-2.346A6.921,6.921,0,0,1,333.785,98.463Zm216.935,1.758a27.055,27.055,0,0,1-3.049,3.518v12.9a6.049,6.049,0,0,0,4.065,1.173,2.384,2.384,0,0,1,1.524-.586V118.4a7.3,7.3,0,0,0-3.556,4.691h0.508c2.253,3.326,7.314,5.683,10.669,7.622V131.3c-5.124-.168-7.533,2.181-8.637,6.45h17.273v-1.173c-1.013-.777-6.147-5.4-6.6-6.449,4.056-1.137,6.03-4.217,7.62-8.209H568.5c-0.378.587-6.951,8.7-7.112,8.8-1.177-8.284-7.64-6.912-9.653-11.14,5.6-1.057,5.391-10.825,4.064-17.59h-1.016c-1.2-.856-1.914-0.257-3.556,0C551.232,100.126,552.089,101.192,550.72,100.221Zm-339.374.587c-0.052,10.27,5.011,8.7,6.1,15.244,3.185,0.078,5.475,1.054,8.129,1.759v-17H211.346Zm356.647,0c-0.419,13.073-2.7,18.112,9.653,17.589a87.839,87.839,0,0,0-1.016-16.417C574.624,100.749,571.372,100.735,567.993,100.808Zm-41.659.586a87.742,87.742,0,0,0,1.016,16.417c2.267,1.63,5.007,1.853,9.144,1.759a93.28,93.28,0,0,0-1.016-17,3.388,3.388,0,0,1-1.016-1.173h-8.128ZM207.79,103.153c-1.226,2.21-2.856,4.12-4.064,6.45h0.508c1.135-2.053,2.8-3.409,3.556-5.864C207.918,103.172,208.188,103.517,207.79,103.153ZM442,125.433h4.573c0.948-3.341,3.6-5.461,5.08-8.208s2.372-5.985,3.556-8.795H434.378v0.586c1.527,0.227,8.492,4.25,9.652,5.277C442.523,116.54,442.1,121.835,442,125.433Zm24.386-17c-1.7,5.936-9.392,14.716-14.733,16.417v0.586h14.225v-0.586c3.669-1.295,5.232-4.827,6.605-8.795a2.238,2.238,0,0,1,.508,1.173,14.718,14.718,0,0,0,1.524,2.345C473.1,115.1,471.53,108.664,466.384,108.43ZM303.81,135.4v-3.518c3.347,0.095,10.42,1.125,12.7-.587,3.612-1.288,5.128-5.071,6.6-8.794,4.647,5.757,3.38,7.206,10.669,11.14v0.586h-0.508c-1.062,1.188-2.868,1.944-3.556,3.518-1.664,3.8-.568,26.526-0.508,32.834h1.016c5.159-5.177,15.8-1.761,16.765,5.277,1.315,1.922,1.3,6.283,0,8.208-0.716,3.393-2.768,6.052-5.588,7.036v-0.586c2.067-2.336,2.158-5.672,1.016-8.795a10.186,10.186,0,0,0-6.1-1.759c-3.859,3.451-6.341,3.909-7.621,10.554a2.246,2.246,0,0,1-.508-1.173c-3.245-2.189-9.348-4.376-10.16-9.381-1.328-2.487-.508-9.275-0.508-12.9,0-10.308.516-22.587-1.017-31.075H315.5C313.369,134.4,306.96,135.323,303.81,135.4Zm132.6-12.313a3.086,3.086,0,0,1-2.032.586v0.587a2.238,2.238,0,0,1,.508,1.172h5.588v-0.586A13.762,13.762,0,0,0,436.41,123.088Zm-1.016,5.863v7.036H467.4v-1.173c-0.9-1.615-1.316-4.41-2.032-5.863H435.394Zm0,10.554v5.277H467.4v-5.277H435.394ZM202.2,140.678c3.076,2.612,5.548,6.023,9.652,7.622,3.8,1.481,10.067.924,13.209,3.518h-1.016c-1.269,1.352-2.743,1.549-3.556,3.518-1.809,2.171-2.33,10.134-.508,12.9,0.527,1.911.906,2.3,2.54,2.931,2.592,2.129,10.857,1.456,14.226.586,9.133-2.357,14.359-1.608,17.781-10.553,1.69-4.419,1.272-10.787,3.556-14.658v0.586c2,3.663,1.1,9.522,3.049,12.9,2.143,3.711,8.217,5.925,9.144,10.554-3.224,4.757-4.565,10.329-9.144,13.485-9.108,6.278-44.575,7.353-53.345,0C200.2,177.7,202.059,155.68,202.2,140.678Zm61.473,0c13.253-.329,17.715,6.86,25.4,12.312l5.589,2.346c-3.466,4.44-3.044,14.612-5.589,19.934-4.424-3.469-8.506-6.475-14.733-3.518V170.58c1.386-2.408.074-6.9-.508-8.8C271.126,152.982,267.8,147.3,263.675,140.678ZM526.334,165.3h8.636c1.17-1.776,3.44-2.357,4.573-4.1,1.188-1.834,1.26-4.128,3.048-5.277,1.209,5.571,4.956,7.821,9.145,9.967,0.91-3.259,5.523-9.18,9.145-9.381a1.76,1.76,0,0,0,1.016.586c1.426,2.453,3.058,3.3,3.556,7.036,5.092,0.259,10.369.753,11.685-3.518-5.691-1.77-11.667-7.351-14.733-12.312q-1.779-3.812-3.557-7.622H549.7a53.353,53.353,0,0,1-13.718,15.244c-2.706,1.97-9.064,3.322-10.668,6.449C526.077,163.324,526.106,163.558,526.334,165.3ZM181.372,181.134c0.033-2.909.242-6.059-.508-8.209-0.55-1.576-4.12-6.427-4.065-6.449,5.121-4.789,9.44-7.674,12.193-15.245q1.017-4.983,2.033-9.967v0.586c3.134,3.492,5.04,8.805,6.1,14.658,1.391,7.713-3.614,10.337.508,18.762C190.814,175.505,187.881,180.369,181.372,181.134ZM435.394,148.3c-0.031,1.7-.025,3.206.508,4.1,1.108,3.273,4.376,2.343,8.128,2.345H467.4V148.3H435.394Zm24.386,19.935v-9.968H437.426v0.586h1.016c1.729,1.245,5.358.461,7.113,1.759,0.975,1.608.532,5.975,0,7.623H459.78Zm1.524-9.968c1.8,2.651,5.2,3.346,8.129,4.691C467.665,159.037,466.888,157.983,461.3,158.267Zm104.657,9.381c-0.415,12.755-2.326,18.1,9.653,17.59,0.077-6.024-.043-12.643-1.016-17C572.512,167.411,568.835,167.605,565.961,167.648Zm-39.119.587c-0.077,6.091.105,12.525,1.016,17,2.005,1.231,5.257,1.245,8.636,1.172a91.96,91.96,0,0,0-1.016-17C533.473,168.176,530.221,168.162,526.842,168.235Zm23.878,0a3.093,3.093,0,0,1-2.032.586v1.172c-1.676,2.475-1.1,9.178-1.017,13.486,1.053,0.752,1.17,1.218,2.541,1.759,1.626-1.4,2.887-.285,3.556-1.759,1.747-2.266,1.1-9.32,1.016-13.486a7.323,7.323,0,0,0-2.032-1.172A3.086,3.086,0,0,0,550.72,168.235Z"/>
  <path id="形状_317_2" data-name="形状 317 2" class="cls-1" d="M95.408-309.371v1.759c-2.412.536-4.328,1.584-5.08,4.1-2.876,4.187-1.573,16.606-.508,21.694,2.513,1.375,4.272.934,6.6-.587v1.173c-3.32,2.946-11.517,13.936-13.717,18.176,6.251,1.029,9.067,6.437,15.749,5.863a211.149,211.149,0,0,0-1.524,21.108c-2.317-.441-3.6-1.782-5.589-2.346-4.088-1.161-7.09,1.255-10.161,1.759,0.017-8.888-4.83-16.163-8.637-21.107-1.54-2-5.816-5.072-6.1-6.45,3.162-2.248,11.295.812,13.717-.586-4.217-1.818-4.841-8.281-6.6-9.381H59.337c0.093,6.816,1.347,27.25-1.016,31.075-1.384,4.753-5.876,4.377-7.621,8.208,6.48,0.529,9.063,6.243,13.209,9.381,1.6,1.211,4.025,1.058,5.589,2.346-2.837,3.54-4.079,11.671-5.081,17H63.909c-2.208-4-6.861-5.434-12.193-4.1v-1.173c1.919-3.159-4.268-20.519-5.588-21.108s-2.509,2.318-3.048,2.932c-0.46-5.385-3.236-11.415-7.113-12.9-1.689-1.6-4.835-1.177-7.113-.586-0.683,1.6-1.185,1.959-1.524,4.1-1.125,2.4,2.294,6.862,3.048,9.381H28.854c-2.924-3.188-6.445-4.052-8.129-8.795-0.808-2.275.058-6.776-1.016-8.8-3.9,4.134-17.017,8.691-24.386,8.8-0.468,9.75-6.618,25.737-10.669,32.248-1.454,2.336-4.088,4.164-5.589,6.449-2.511,3.826-5.922,8.932-10.161,10.554v-1.173c4.513-5.248,5-14.163,7.113-22.28,5.415-20.818,6.091-48.63,6.1-74.462,0-7.74,2.523-34.481-2.032-36.938h-4.064a5.825,5.825,0,0,1-3.048,1.759v-0.587h0.508c1.551-3.09,13.474-19.475,15.749-20.521,0.658-.514,1.253-0.524,2.54-0.586,1.964,2.347,4.884,3.841,6.6,6.449l0.508,2.346H78.135C83.87-341.5,85.808-341.147,89.312-351h1.016c1.828,8.79,8.712,17.732,16.257,19.935v0.586H54.765v0.586c5.262,4.491,2.255,16.607-3.048,18.176v0.587H72.038v-0.587c5.176-2.064,6.1-7.757,9.145-12.312v0.586C85.792-317.654,86.7-310.657,95.408-309.371Zm-194.073-4.691q-0.254,16.709-.508,33.42c6.529,0.084,25.426,1.595,29.975-.586,5.026-2.41,8.426-9.471,10.669-15.244a2.231,2.231,0,0,1,.508,1.172c3.187,3.863,4.45,10.231,8.129,13.486,2.119,1.875,6.776,3.209,8.129,5.863H-65.642V-226.7c0,9.528-.494,21.024,1.016,28.729a38.765,38.765,0,0,1,4.572,2.932h-1.016c-2.518,3.023-6.079,4.6-8.129,8.208-2.566,4.515-2.683,11.562-5.588,15.831-0.835-8.224-5.856-18.277-10.669-22.28-1.206-1-2.518-1.226-3.556-2.345,2.2-.258,3.384-0.851,4.064-2.932,3.021-3.9,2.032-14.575,2.032-21.694v-55.7H-99.173c0.522,45.232-8.314,85.055-40.643,92.638v-1.172c2-1.663,3.083-4.159,4.572-6.45,2.877-4.426,6.632-8.529,9.145-13.485,5.725-11.292,7.513-28.675,7.621-45.733h-0.508v1.173c-1.393,2.032-2.147,5.12-3.049,7.622-1.872-1.949-3.536-4.745-6.1-5.864-2.218-.969-5.877.363-7.113-1.758,3.418-4.945-1.081-20.023-2.032-24.626a7.324,7.324,0,0,0-2.032-1.173v0.587c-3.25,2.62-2.032,12.012-2.032,18.176v51.009q0.762,2.639,1.524,5.277a33.459,33.459,0,0,0,5.08,2.346,1.567,1.567,0,0,1-.508.586c-1.289,1.189-3.141,1.228-4.572,2.345-5.561,4.342-7.621,13.158-10.161,21.108h-0.508c-0.437-9.117-7.293-21.7-14.733-22.867v-1.759a13.536,13.536,0,0,0,3.556-.586c5.533-10.239,3.086-39.877,3.048-56.287h-1.016c-3.231,4.55-16.961,10.151-23.37,11.14v-1.172c3.9-2.292,20.978-21.318,22.354-25.8h-1.016c-1.717-1.329-3.88.062-5.589,0.586v-1.173c5.129-4.019,10.822-17.94,16.766-19.348a3.487,3.487,0,0,0,2.032,1.173c1.27-5.1,5.032-7.139,4.064-13.486h-38.1v-4.1h21.846c0.056-4.629.625-11.159-1.016-14.072-1.313-2.33-4.412-2.718-5.589-5.277,6.944-1.725,13.708-9.028,15.242-17h0.508c1.059,8.781,8.509,15.2,15.749,17v1.173c-4.1.668-4.9,3.719-7.113,6.45q-0.253,5.57-.508,11.14h0.508c1.894-1.967,5.025-2.367,7.113-4.1,2.667-2.219,4.127-7.089,7.113-8.794,0.075,3.065,1.207,8.22,3.048,9.381,2.143-3.892,13.335-19.422,17.273-19.935,4.167,4.6,6.622,5.258,9.145,12.313,9.578-4.741,29.993-15.24,35.055-24.04h0.508v0.587l12.193,15.83c1.965,2.266,5.067,3.743,6.1,7.036h-8.637c-3.637,2.543-10.662.025-15.241,1.173ZM0.4-330.479c1.409,8.2,1.525,27.612,0,35.766V-278.3c-1.265,6.685-.1,14.874-1.524,22.28l-2.54,15.83h0.508c5.366-7.84,18.963-13.234,21.846-23.452-2.423-2.848-3.774-7.02-6.6-9.382-2.057-1.716-6.32-2.155-7.621-4.69,2.472-.389,5.345-2.2,6.1-4.691,2.161-3.164,1.285-15.089.508-19.348-2.9-1.664-4.245-1.545-7.621-.587v-1.172c5-3.915,9.778-16.111,16.765-16.417,1.048,1.667,3.027,2.475,4.064,4.1l2.032,4.691H31.9V-312.3c-0.64-1.1-.515-3.324-0.508-5.277,0.032-9.074,3.5-9.3,8.129-12.9H0.4Zm52.837,0c-2.916-.094-8.739-0.872-10.669.586,4.5,0.42,5.274,3.248,10.161,3.518A14.41,14.41,0,0,0,53.241-330.479ZM36.475-315.235a14.463,14.463,0,0,1-2.032,2.932v1.173H44.1v-0.587C41.12-312.832,40.5-314.955,36.475-315.235Zm-159.526,4.105a13.474,13.474,0,0,1-2.54,1.172,1.571,1.571,0,0,0,.508.587c1.683,3.375,4.681,6.952,8.129,8.208v-5.277a12.179,12.179,0,0,1-1.016-2.345C-119.671-309.943-120.382-310.868-123.051-311.13Zm149.873,4.69v9.968H73.054c0-2.192-.194-4.557-1.016-5.864-1.5-5.2-6.338-4.1-12.193-4.1H26.822Zm-144.792,8.209c-2.091,1.855-5.012,2.326-7.113,4.1-1.79,1.515-2.714,4.368-4.064,6.449-2.422,3.733-5.98,6.388-8.129,10.554,10.127,0.786,13.377,10.781,19.814,15.831v-26.385C-117.463-290.773-116.854-296.189-117.97-298.231Zm144.792,6.449c0.01,2.269.078,7.184,1.016,8.795,0.477,1.826,1.274,2.659,2.032,4.1H73.054v-12.9H26.822ZM303.2-261.293c-0.191,1.887-1.685,11.5-2.54,12.9-1.262-1.525-2.584-2.166-5.081-2.345v0.586h1.017a5.815,5.815,0,0,0,3.048,1.759v1.172a3.9,3.9,0,0,0-3.556,2.346c-2.414,3.559-1.369,18.085-.509,22.866a9.6,9.6,0,0,0,3.557.587,2.384,2.384,0,0,1,1.524-.587v0.587c-2.909,2.2-6.73,7.205-8.637,10.553,1.649,0.486.776-.287,1.524,1.173-1.8.532-2.588,1.467-4.064,2.345v0.587h9.653v-0.587c3.376-1.335,5.17-5.787,6.6-9.381a2.23,2.23,0,0,1,.508,1.173c3.912,4.817,4.31,7.392,10.161,10.553v0.587c-6.1,1.052-8.592,9.96-10.669,10.554-2.759-3.528-3.28-8.785-8.636-9.382-1.6-1.211-6.132-.662-8.637-0.586a89.566,89.566,0,0,0,1.016,16.417c1.243,0.6,2.39.948,3.048,2.345-7.761,1.443-6.518,9.593-10.161,12.313v-0.586c-1.383-2.033-1.724-4.924-3.048-7.036-1.631-2.6-4.418-3.278-6.605-5.277h1.017c0.758-.961,1.709-2.054,2.54-2.932,0.261-4.461.5-9.971,0.508-15.244H262.555v0.586h-0.508c-0.893,16.386-12.968,19.835-25.4,23.453-2.609.759-9.385,3.224-12.193,1.173h1.016c5.094-4.45,13.268-5.1,18.29-9.968,3.509-3.4,4.424-9.644,6.1-15.244H223.435v-2.931h26.927V-213.8h-0.508v0.586h-0.509c-0.7,1.53-1.694,4.415-3.048,5.277-1.056-7.916-6.942-6.515-9.145-11.14,6.129-1.87,4.279-15.907,4.065-24.626a2.222,2.222,0,0,1-.508-1.172,1.677,1.677,0,0,1-1.016-.587l-3.557,1.173v-0.586a2.23,2.23,0,0,0,.508-1.173c3.567-2.813,5.8-10.4,10.669-11.14a13.892,13.892,0,0,0,2.541,2.345,71.19,71.19,0,0,0-5.081-11.14h-0.508v0.587c-7.376,5.836-11.254,19.2-22.862,19.934v-0.586c7.588-6.986,15.6-28.912,18.29-41.629H240.2c0.721,6.8,5.123,7.726,8.636,11.141a26.722,26.722,0,0,1-2.032,6.449h9.145v-0.586c4.512-1.748,4.487-7.76,8.129-9.968,1.226,6.225,5.28,8.15,8.128,12.313h0.508v-0.586c3.426-4.55,4.023-14.122,6.1-19.935h0.508c0.589,8.725,9.914,7.469,9.145,12.9-0.292,2.062-2.178,4.751-3.048,6.449h9.144c0.775-1.42,6.143-9.989,7.113-10.553v0.586c1.436,1.775,1.784,4.43,3.048,6.449,1.894,3.025,5.1,4.108,7.621,6.45-3.97-.081-16.948-1.154-19.306.586C297.349-265.2,298.171-261.69,303.2-261.293ZM186.856-244.876l9.653-.587c2.2-3.595,4.75-5.457,6.6-9.967h0.509v0.586c3.709,5.465,3.628,7.857,9.652,11.14v0.587h-0.508c-4.512,4.857-6.34,3.858-9.144,11.726h-1.017c-0.7-5.994-4.107-7.327-7.112-10.554h-8.637c-0.08,16.4-1.808,37.275,1.016,51.6a7.4,7.4,0,0,1,3.048,1.173h-0.508c-5,5.559-8.385,8.5-10.161,18.176h-0.508c-0.589-5.67-3.35-13.045-6.6-15.831-1.483-1.27-2.637-.942-3.556-2.931,2.054-.275,2.406-0.41,3.048-2.346,1.751-2.882,1.016-9.955,1.016-14.657v-35.18H150.785v-2.931h22.862v-42.8h1.016c1.368,5.42,7.122,8.847,11.685,10.554,2.257,0.845,4.423.411,6.1,1.759h-0.509c-1.3,1.441-3.117,2.258-4.064,4.1C185.2-266.04,186.783-252.328,186.856-244.876ZM410.9-207.938h-4.572c-2.682,4.695-2.633,7.707-2.54,15.83a7.3,7.3,0,0,0,2.032,1.173c1.183,0.787,2.247.054,3.556-.586v1.172c-3.932,3.047-6.062,9.823-10.669,11.727-1.4-1.462-3.481-2.318-4.572-4.1q-0.508-1.76-1.016-3.518h-9.145v0.586c-4.132,1.556-4.006,6.09-7.112,8.208a12.443,12.443,0,0,0-9.145-9.967c-1.645,3.02-5.164,8.609-8.637,9.381-2.341-2.5-4.543-2.827-5.08-7.622-2.6-.093-7.476-0.684-9.145.586-3.358,1.253-5.192,4.687-6.605,8.209-1.923-2.3-2.813-5.728-5.08-7.622-1.648-1.377-4.035-1.441-5.081-3.518a3.9,3.9,0,0,0,3.557-2.346c1.829-2.645,1.174-11.085.508-14.658a5.563,5.563,0,0,1-1.524-1.172l-3.557,1.172v-0.586a12.414,12.414,0,0,0,3.557-5.277h-1.017c-1.147.956-5.455,0.941-6.6,0,8.165-1.131,15.772-8.075,21.338-12.9,3.2-2.774,5.247-7.31,8.636-9.967v-0.586H323.52v-3.518l32.007,0.586c1.09-2.543,2.75-4.235,3.556-7.036a1.577,1.577,0,0,0,.508-0.586,10.11,10.11,0,0,1-5.08-4.691q-0.255-1.172-.508-2.345H343.842c-1.892,3.081-4.02,4.3-5.589,8.208a1.569,1.569,0,0,1-.508-0.586c-1.569-1.839-2.248-4.918-4.064-6.449-1.875-1.581-4.968-1.659-6.1-4.1,5.895-.9,4.842-8.8,4.573-16.417a2.222,2.222,0,0,1-.508-1.172h-1.016c-1.27-.827-2.446.105-4.065,0.586v-0.586h0.508c1.567-2.918,7.97-11.893,11.177-12.313l3.556,3.518q0.762,2.344,1.525,4.691h8.128v-0.587c4.406-1.645,4.788-6.562,8.129-8.795,0.345,3.973,8.076,12.187,10.161,9.968,3.307-2.6,4.967-8.75,9.653-9.381,1.416,1.753,3.055,3.64,4.572,5.277v2.345h9.653c1.035-1.56,3.076-1.967,4.064-3.518,0.544-.853,2.231-5.835,2.541-4.691,1.74,2.072,2.477,5.39,4.572,7.036,1.884,1.481,4.426,1.21,5.588,3.518h-1.016c-1.251,1.165-2.285,1.086-3.048,2.932-1.526,2.6-.586,8.7-0.508,13.485,2.427,1.686,2.692,1.47,5.588.586v0.587c-4.065,3.235-6.035,11.256-12.193,11.726-3.413-4.483-3.242-7.255-10.668-7.036v1.173c1.315,1.523,2.022,4.034,3.556,5.277,1.63,1.32,2.628.737,3.556,2.931a9.282,9.282,0,0,0-6.6,6.45h10.16v-0.586c3.564-1.338,5.61-6.247,7.113-9.968a2.238,2.238,0,0,1,.508,1.173c1.87,2.684,2.664,6.2,5.081,8.208,1.537,1.281,3.618,1.587,5.08,2.932h-0.508c-2.352,2.513-5.717,3.419-7.621,6.449-1.218,1.939-1.116,4.121-3.048,5.277-1.141-5.356-4.174-7.354-7.113-10.553H380.421v0.586a1.577,1.577,0,0,1,.508.586c9.952,5.591,21.3,10.832,36.071,11.14v1.173C413.556-218.272,411.468-213.824,410.9-207.938Zm-260.118-68.6h1.524c1.069,3.871,2.507,5.832,2.54,11.726-1.883,2.236-3.652,4.276-5.588,6.449-5.871,0-6.58-2.753-12.193-2.931-0.562,1.489-1.15,4.431-2.032,5.863v-0.586c-2.732-3.322-1.982-10.165-1.017-14.658a31.368,31.368,0,0,0,4.573-4.105c5.737-.034,7.129,2.193,12.7,2.346a9.339,9.339,0,0,0,.508-2.346A6.92,6.92,0,0,1,150.785-276.537Zm216.935,1.758a27.055,27.055,0,0,1-3.049,3.518v12.9a6.049,6.049,0,0,0,4.065,1.173,2.384,2.384,0,0,1,1.524-.586v1.172a7.3,7.3,0,0,0-3.556,4.691h0.508c2.253,3.326,7.314,5.683,10.669,7.622v0.586c-5.124-.168-7.533,2.181-8.637,6.45h17.273v-1.173c-1.013-.777-6.147-5.4-6.6-6.449,4.056-1.137,6.03-4.217,7.62-8.209H385.5c-0.378.587-6.951,8.7-7.112,8.8-1.177-8.284-7.64-6.912-9.653-11.14,5.6-1.057,5.391-10.825,4.064-17.59h-1.016c-1.2-.856-1.914-0.257-3.556,0C368.232-274.874,369.089-273.808,367.72-274.779Zm-339.374.587c-0.052,10.27,5.01,8.7,6.1,15.244,3.185,0.078,5.475,1.054,8.129,1.759v-17H28.346Zm356.647,0c-0.419,13.073-2.7,18.112,9.653,17.589a87.839,87.839,0,0,0-1.016-16.417C391.624-274.251,388.372-274.265,384.993-274.192Zm-41.659.586a87.742,87.742,0,0,0,1.016,16.417c2.267,1.63,5.007,1.853,9.144,1.759a93.28,93.28,0,0,0-1.016-17,3.388,3.388,0,0,1-1.016-1.173h-8.128ZM24.79-271.847c-1.226,2.21-2.856,4.12-4.064,6.45h0.508c1.136-2.053,2.8-3.409,3.556-5.864C24.918-271.828,25.188-271.483,24.79-271.847ZM259-249.567h4.573c0.948-3.341,3.6-5.461,5.08-8.208s2.372-5.985,3.556-8.8H251.378v0.586c1.527,0.227,8.492,4.25,9.652,5.277C259.523-258.46,259.1-253.165,259-249.567Zm24.386-17c-1.7,5.936-9.392,14.716-14.733,16.417v0.586h14.225v-0.586c3.669-1.3,5.232-4.827,6.605-8.795a2.238,2.238,0,0,1,.508,1.173,14.718,14.718,0,0,0,1.524,2.345C290.1-259.9,288.53-266.336,283.384-266.57ZM120.81-239.6v-3.518c3.347,0.095,10.42,1.125,12.7-.587,3.612-1.288,5.128-5.071,6.605-8.794,4.647,5.757,3.38,7.206,10.669,11.14v0.586h-0.508c-1.062,1.188-2.868,1.944-3.556,3.518-1.664,3.8-.568,26.526-0.508,32.834h1.016c5.159-5.177,15.8-1.761,16.765,5.277,1.315,1.922,1.3,6.283,0,8.208-0.716,3.393-2.768,6.052-5.588,7.036v-0.586c2.067-2.336,2.158-5.672,1.016-8.795a10.186,10.186,0,0,0-6.1-1.759c-3.859,3.451-6.341,3.909-7.621,10.554a2.246,2.246,0,0,1-.508-1.173c-3.245-2.189-9.348-4.376-10.16-9.381-1.328-2.487-.508-9.275-0.508-12.9,0-10.308.516-22.587-1.017-31.075H132.5C130.369-240.6,123.96-239.677,120.81-239.6Zm132.6-12.313a3.086,3.086,0,0,1-2.032.586v0.587a2.238,2.238,0,0,1,.508,1.172h5.588v-0.586A13.762,13.762,0,0,0,253.41-251.912Zm-1.016,5.863v7.036H284.4v-1.173c-0.9-1.615-1.316-4.41-2.032-5.863H252.394Zm0,10.554v5.277H284.4v-5.277H252.394ZM19.2-234.322c3.076,2.612,5.549,6.023,9.653,7.622,3.8,1.481,10.066.924,13.209,3.518H41.047c-1.269,1.352-2.744,1.549-3.556,3.518-1.809,2.171-2.33,10.134-.508,12.9,0.527,1.911.906,2.3,2.54,2.931,2.592,2.129,10.857,1.456,14.225.586,9.133-2.357,14.36-1.608,17.782-10.553,1.69-4.419,1.272-10.787,3.556-14.658v0.586c1.995,3.663,1.1,9.522,3.048,12.9,2.143,3.711,8.217,5.925,9.145,10.554-3.225,4.757-4.565,10.329-9.145,13.485-9.108,6.278-44.575,7.353-53.345,0C17.2-197.3,19.059-219.32,19.2-234.322Zm61.473,0c13.253-.329,17.715,6.86,25.4,12.312l5.589,2.346c-3.466,4.44-3.044,14.612-5.589,19.934-4.424-3.469-8.506-6.475-14.733-3.518v-1.172c1.386-2.408.075-6.9-.508-8.8C88.126-222.018,84.8-227.7,80.675-234.322ZM343.334-209.7h8.636c1.17-1.776,3.44-2.357,4.573-4.1,1.188-1.834,1.26-4.128,3.048-5.277,1.209,5.571,4.956,7.821,9.145,9.967,0.91-3.259,5.523-9.18,9.145-9.381a1.76,1.76,0,0,0,1.016.586c1.426,2.453,3.058,3.3,3.556,7.036,5.092,0.259,10.369.753,11.685-3.518-5.691-1.77-11.667-7.351-14.733-12.312q-1.779-3.812-3.557-7.622H366.7a53.353,53.353,0,0,1-13.718,15.244c-2.706,1.97-9.064,3.322-10.668,6.449C343.077-211.676,343.106-211.442,343.334-209.7ZM-1.628-193.866c0.034-2.909.243-6.059-.508-8.209-0.55-1.576-4.119-6.427-4.064-6.449,5.12-4.789,9.44-7.674,12.193-15.245l2.032-9.967v0.586c3.135,3.492,5.041,8.805,6.1,14.658,1.391,7.713-3.614,10.337.508,18.762C7.814-199.495,4.881-194.631-1.628-193.866ZM252.394-226.7c-0.031,1.7-.025,3.206.508,4.1,1.108,3.273,4.376,2.343,8.128,2.345H284.4V-226.7H252.394Zm24.386,19.935v-9.968H254.426v0.586h1.016c1.729,1.245,5.358.461,7.113,1.759,0.975,1.608.532,5.975,0,7.623H276.78Zm1.524-9.968c1.8,2.651,5.2,3.346,8.129,4.691C284.665-215.963,283.888-217.017,278.3-216.733Zm104.657,9.381c-0.415,12.755-2.326,18.1,9.653,17.59,0.077-6.024-.043-12.643-1.016-17C389.512-207.589,385.835-207.395,382.961-207.352Zm-39.119.587c-0.077,6.091.105,12.525,1.016,17,2,1.231,5.257,1.245,8.636,1.172a91.96,91.96,0,0,0-1.016-17C350.473-206.824,347.221-206.838,343.842-206.765Zm23.878,0a3.093,3.093,0,0,1-2.032.586v1.172c-1.676,2.475-1.095,9.178-1.017,13.486,1.053,0.752,1.17,1.218,2.541,1.759,1.626-1.4,2.887-.285,3.556-1.759,1.747-2.266,1.1-9.32,1.016-13.486a7.323,7.323,0,0,0-2.032-1.172A3.086,3.086,0,0,0,367.72-206.765Z"/>
</svg>
