<?xml version="1.0" standalone="no"?><!DOCTYPE svg PUBLIC "-//W3C//DTD SVG 1.1//EN" "http://www.w3.org/Graphics/SVG/1.1/DTD/svg11.dtd"><svg t="1645414217892" class="icon" viewBox="0 0 1024 1024" version="1.1" xmlns="http://www.w3.org/2000/svg" p-id="7797" xmlns:xlink="http://www.w3.org/1999/xlink" width="200" height="200"><defs><style type="text/css"></style></defs><path d="M974.506667 426.666667A28.16 28.16 0 0 0 1002.666667 398.506667V202.666667A74.666667 74.666667 0 0 0 928 128h-832A74.666667 74.666667 0 0 0 21.333333 202.666667v195.84A28.16 28.16 0 0 0 49.493333 426.666667a87.893333 87.893333 0 0 1 88.746667 76.8 85.333333 85.333333 0 0 1-85.333333 93.866666h-3.413334A28.16 28.16 0 0 0 21.333333 625.493333v195.84A74.666667 74.666667 0 0 0 96 896h832a74.666667 74.666667 0 0 0 74.666667-74.666667v-195.84A28.16 28.16 0 0 0 974.506667 597.333333h-3.84a85.333333 85.333333 0 0 1-85.333334-93.866666 87.893333 87.893333 0 0 1 89.173334-76.8zM938.666667 657.92v163.413333a10.666667 10.666667 0 0 1-10.666667 10.666667h-832a10.666667 10.666667 0 0 1-10.666667-10.666667v-163.413333a149.333333 149.333333 0 0 0 0-291.84V202.666667a10.666667 10.666667 0 0 1 10.666667-10.666667h832a10.666667 10.666667 0 0 1 10.666667 10.666667v163.413333a149.333333 149.333333 0 0 0 0 291.84z" fill="#707070" p-id="7798"></path><path d="M381.226667 517.76a296.746667 296.746667 0 0 1-48.64 170.666667l40.96 37.333333a333.013333 333.013333 0 0 0 58.453333-162.346667h205.44v84.053334c0 13.226667-5.12 21.333333-15.36 21.333333-18.986667 0-39.893333 0-62.506667-2.56l14.293334 52.266667H640a45.44 45.44 0 0 0 52.266667-50.773334V266.24H381.226667z m53.76-200.32h202.24v71.68h-202.24z m0 121.386667h202.24v75.733333h-202.24z" fill="#707070" p-id="7799"></path></svg>